<svg xmlns="http://www.w3.org/2000/svg" version="1.1" xmlns:xlink="http://www.w3.org/1999/xlink" xmlns:svgjs="http://svgjs.dev/svgjs" width="2000" height="1247" viewBox="0 0 2000 1247"><g transform="matrix(1,0,0,1,-1.2121212121212466,0.504858299595071)"><svg viewBox="0 0 396 247" data-background-color="#ffffff" preserveAspectRatio="xMidYMid meet" height="1247" width="2000" xmlns="http://www.w3.org/2000/svg" xmlns:xlink="http://www.w3.org/1999/xlink"><g id="tight-bounds" transform="matrix(1,0,0,1,0.2400000000000091,-0.09999999999999432)"><svg viewBox="0 0 395.52 247.2" height="247.2" width="395.52"><g><svg></svg></g><g><svg viewBox="0 0 395.52 247.2" height="247.2" width="395.52"><g transform="matrix(1,0,0,1,107.64439758308156,47.215199999999996)"><svg viewBox="0 0 180.23120483383687 152.7696" height="152.7696" width="180.23120483383687"><g><svg viewBox="0 0 180.23120483383687 152.7696" height="152.7696" width="180.23120483383687"><g><svg viewBox="0 0 180.23120483383687 152.7696" height="152.7696" width="180.23120483383687"><g><svg viewBox="0 0 180.23120483383687 152.7696" height="152.7696" width="180.23120483383687"><g id="textblocktransform"><svg viewBox="0 0 180.23120483383687 152.7696" height="152.7696" width="180.23120483383687" id="textblock"><g><svg viewBox="0 0 180.23120483383687 152.7696" height="152.7696" width="180.23120483383687"><g transform="matrix(1,0,0,1,0,0)"><svg width="180.23120483383687" viewBox="1.2000000476837158 -33.099998474121094 39.04999923706055 33.099998474121094" height="152.7696" data-palette-color="#8b3c7f"><path d="M35.7-3.4L40.25-2.65 40.2 0 22.7 0 22.4-1.6Q24.3-2.9 26.65-3.95L26.65-3.95 26.65-14.15 14.5-14.15 14.5-3.4 19.05-2.65 19 0 1.5 0 1.2-1.6Q3.1-2.9 5.45-3.95L5.45-3.95 5.45-29.85 1.6-30.45 1.65-33.1 18.45-33.1 18.75-31.5Q16.95-30.2 14.5-29.15L14.5-29.15 14.5-18.85 26.65-18.85 26.65-29.85 22.8-30.45 22.85-33.1 39.65-33.1 39.95-31.5Q38.15-30.2 35.7-29.15L35.7-29.15 35.7-3.4Z" opacity="1" transform="matrix(1,0,0,1,0,0)" fill="#ffffff" class="wordmark-text-0" data-fill-palette-color="primary" id="text-0"></path></svg></g></svg></g></svg></g></svg></g></svg></g></svg></g></svg></g><path d="M289.946 41.215L289.946 0 42.746 0 42.746 247.2 289.946 247.2 289.946 205.985 276.169 205.985 276.169 233.423 56.523 233.423 56.523 13.777 276.169 13.777 276.169 41.215Z" fill="#ffffff" stroke="transparent" data-fill-palette-color="primary"></path></svg></g><defs></defs></svg><rect width="395.52" height="247.2" fill="none" stroke="none" visibility="hidden"></rect></g></svg></g></svg>